<?xml version="1.0" standalone="no"?>
<!DOCTYPE svg PUBLIC "-//W3C//DTD SVG 20010904//EN"
 "http://www.w3.org/TR/2001/REC-SVG-20010904/DTD/svg10.dtd">
<svg version="1.0" xmlns="http://www.w3.org/2000/svg"
 width="465.000000pt" height="154.000000pt" viewBox="0 0 465.000000 154.000000"
 preserveAspectRatio="xMidYMid meet">
<metadata>
Created by potrace 1.15, written by Peter Selinger 2001-2017
</metadata>
<g transform="translate(0.000000,154.000000) scale(0.100000,-0.100000)"
fill="#000000" stroke="none">
<path d="M625 1524 c-280 -51 -516 -268 -597 -550 -29 -103 -31 -295 -4 -393
70 -254 256 -455 496 -535 193 -64 411 -51 582 35 l57 29 1639 0 c1820 0 1704
-4 1777 67 76 74 75 61 75 578 0 294 -4 474 -11 498 -13 47 -69 111 -123 140
l-41 22 -1655 5 -1655 5 -36 23 c-80 50 -260 93 -377 91 -26 0 -83 -7 -127
-15z m355 -103 c99 -34 198 -97 276 -176 196 -198 250 -511 130 -760 -71 -150
-169 -250 -318 -325 -212 -106 -477 -90 -675 42 -196 132 -303 333 -303 572 0
193 60 337 200 476 96 96 183 148 302 180 102 28 294 23 388 -9z m1338 -478
l3 -43 -85 0 -86 0 0 -40 0 -40 86 0 85 0 -3 -42 -3 -43 -82 -3 -83 -3 0 -59
0 -60 85 0 85 0 0 -40 0 -40 -130 0 -130 0 0 230 0 231 128 -3 127 -3 3 -42z
m1212 -13 c0 -57 1 -60 25 -60 21 0 25 -5 25 -31 l0 -31 25 30 c13 16 39 32
56 36 41 8 101 -8 124 -34 18 -20 18 -21 -6 -46 -24 -23 -26 -24 -56 -9 -32
16 -67 11 -60 -9 2 -6 26 -23 53 -38 102 -56 123 -121 59 -185 -34 -34 -38
-35 -96 -31 -48 4 -65 10 -87 31 l-27 27 27 26 c25 25 27 26 49 10 26 -18 74
-21 84 -6 9 15 -12 38 -58 62 -53 27 -87 65 -87 98 0 24 -3 27 -25 22 l-25 -4
0 -129 0 -129 -45 0 -45 0 0 129 c0 127 0 130 -22 133 -19 2 -23 9 -23 38 0
29 4 36 23 38 20 3 22 9 22 63 l0 59 45 0 45 0 0 -60z m-590 -75 c47 -24 82
-79 88 -135 l5 -50 -137 0 c-88 0 -136 -4 -136 -10 0 -6 11 -22 25 -35 28 -29
97 -34 130 -12 17 12 25 12 53 0 38 -16 39 -23 10 -51 -62 -58 -183 -57 -247
1 -29 27 -61 93 -61 127 0 76 56 159 123 179 40 13 108 6 147 -14z m390 -4
c37 -27 49 -74 49 -203 l1 -118 -45 0 -45 0 0 104 c0 58 -4 116 -9 129 -18 46
-87 40 -110 -10 -6 -13 -11 -69 -11 -123 l0 -100 -45 0 -45 0 0 170 0 170 45
0 c35 0 45 -4 45 -16 0 -15 2 -15 23 -1 48 31 103 30 147 -2z m-884 -66 c19
-44 37 -88 42 -99 6 -14 17 4 51 83 l43 101 44 0 44 0 -13 -32 c-138 -325
-129 -308 -162 -308 -29 0 -33 5 -57 63 -15 34 -47 111 -72 170 l-45 108 46
-3 46 -3 33 -80z"/>
<path d="M653 1149 c-7 -7 -13 -30 -13 -51 0 -57 -28 -184 -55 -252 -29 -71
-85 -156 -99 -150 -6 2 -60 -45 -119 -104 l-109 -109 17 -39 c22 -52 51 -83
103 -106 44 -20 44 -20 66 1 l22 21 45 -46 c67 -69 72 -70 119 -28 23 21 40
45 40 58 0 13 -20 42 -50 71 l-50 49 35 36 c20 20 32 39 29 43 -32 32 284 167
392 167 44 0 68 30 60 73 -15 82 -148 242 -267 323 -72 50 -142 68 -166 43z
m120 -35 c72 -37 235 -202 271 -276 34 -69 32 -102 -6 -106 -16 -2 -28 1 -28
7 0 6 -26 27 -57 47 -32 20 -60 38 -62 40 -3 2 6 15 19 28 29 32 22 64 -25
105 -36 31 -68 40 -80 21 -3 -5 -14 -14 -25 -20 -16 -8 -24 -1 -61 58 -23 37
-46 69 -51 70 -4 2 -8 15 -8 28 0 20 5 24 30 24 17 0 54 -12 83 -26z"/>
</g>
</svg>
