<?xml version="1.0" standalone="no"?>
<!DOCTYPE svg PUBLIC "-//W3C//DTD SVG 20010904//EN"
 "http://www.w3.org/TR/2001/REC-SVG-20010904/DTD/svg10.dtd">
<svg version="1.0" xmlns="http://www.w3.org/2000/svg"
 width="465.000000pt" height="153.000000pt" viewBox="0 0 465.000000 153.000000"
 preserveAspectRatio="xMidYMid meet">
<metadata>
Created by potrace 1.15, written by Peter Selinger 2001-2017
</metadata>
<g transform="translate(0.000000,153.000000) scale(0.100000,-0.100000)"
fill="#000000" stroke="none">
<path d="M575 1510 c-239 -63 -429 -231 -522 -460 -110 -272 -40 -613 167
-820 227 -227 575 -293 856 -162 l79 37 1666 5 1666 5 49 30 c30 19 60 49 79
79 l30 49 3 473 c3 467 2 474 -19 524 -23 54 -73 104 -125 126 -28 12 -304 14
-1670 14 l-1636 0 -81 40 c-120 59 -216 80 -356 79 -80 0 -138 -6 -186 -19z
m338 -76 c435 -96 660 -571 462 -972 -78 -158 -217 -279 -387 -339 -97 -35
-280 -44 -378 -19 -175 45 -321 149 -415 296 -79 124 -109 227 -108 375 2 317
225 591 538 660 83 18 202 18 288 -1z m2057 -699 l0 -235 -40 0 -40 0 0 235 0
235 40 0 40 0 0 -235z m272 173 c3 -57 5 -63 26 -66 18 -3 22 -10 22 -38 0
-30 -3 -34 -25 -34 l-25 0 0 -135 0 -135 -40 0 -40 0 0 135 0 135 -25 0 c-22
0 -25 4 -25 34 0 28 4 35 23 38 20 3 22 9 25 66 l3 62 39 0 39 0 3 -62z
m-1282 12 l0 -40 -70 0 -70 0 0 -45 0 -45 70 0 70 0 0 -40 0 -40 -70 0 -69 0
-3 -102 -3 -103 -42 -3 -43 -3 0 230 0 231 115 0 115 0 0 -40z m253 -90 c31
-17 37 -17 37 -5 0 11 11 15 40 15 l40 0 0 -170 0 -170 -40 0 c-30 0 -40 4
-40 16 0 9 -3 14 -7 12 -99 -51 -147 -47 -210 18 -136 141 11 374 180 284z
m444 -1 c24 -12 48 -29 53 -40 9 -15 5 -21 -21 -34 -28 -15 -34 -15 -64 -1
-83 39 -165 -5 -165 -89 0 -14 13 -39 29 -57 25 -29 35 -33 75 -32 29 1 53 8
66 19 18 16 21 16 55 -5 35 -22 36 -23 18 -42 -41 -45 -125 -66 -192 -48 -86
23 -151 117 -137 197 23 124 163 190 283 132z m1016 7 c42 -17 83 -66 97 -114
20 -75 26 -72 -125 -72 -145 0 -154 -4 -117 -49 24 -30 81 -37 125 -16 33 15
37 15 67 0 l32 -17 -27 -28 c-37 -39 -113 -57 -172 -41 -116 31 -167 154 -110
261 41 77 146 112 230 76z m315 -6 c38 -23 40 -39 10 -68 -20 -18 -25 -19 -42
-6 -11 8 -31 14 -44 14 -39 0 -22 -32 33 -62 64 -35 85 -61 85 -108 0 -100
-138 -144 -219 -69 l-23 21 27 28 27 28 34 -20 c37 -22 77 -17 72 10 -2 9 -29
31 -60 49 -93 54 -111 112 -54 169 28 28 41 34 78 34 25 0 56 -8 76 -20z
m-1138 -160 l0 -170 -45 0 -45 0 0 170 0 170 45 0 45 0 0 -170z m250 0 l0
-170 -45 0 -45 0 0 170 0 170 45 0 45 0 0 -170z m290 0 l0 -170 -45 0 -45 0 0
170 0 170 45 0 45 0 0 -170z"/>
<path d="M653 1270 l-42 -19 44 -100 c24 -55 46 -110 50 -121 7 -21 -1 -26
-201 -115 l-52 -23 -47 112 c-26 61 -48 112 -50 114 -1 1 -22 -7 -48 -18 -36
-16 -44 -24 -40 -40 4 -14 -1 -21 -21 -26 -21 -5 -25 -10 -20 -30 3 -13 2 -24
-2 -24 -5 0 -15 -4 -22 -9 -10 -6 -6 -24 18 -86 l31 -78 -32 -28 c-17 -15 -36
-30 -41 -31 -6 -2 -4 -19 5 -39 15 -36 15 -36 69 -31 l55 4 29 -77 29 -76 33
6 c21 4 32 2 32 -6 0 -7 11 -9 34 -5 47 9 51 -10 15 -68 -31 -49 -31 -68 -3
-113 32 -50 76 -61 344 -83 139 -11 254 -19 255 -18 1 2 56 150 122 331 85
231 116 327 106 327 -20 0 -46 68 -39 103 l6 30 -92 -7 c-51 -4 -117 -9 -146
-13 -45 -5 -52 -4 -46 10 3 9 14 19 25 22 23 8 23 12 4 59 -13 30 -19 35 -33
28 -9 -5 -32 -9 -51 -8 -33 1 -36 4 -63 70 -15 38 -30 71 -32 74 -2 2 -14 -2
-26 -8 -18 -9 -24 -9 -34 5 -10 15 -16 15 -34 6 -18 -10 -23 -9 -28 4 -8 19
-10 19 -61 -5z m96 -135 c52 -123 56 -150 27 -174 -11 -9 -26 17 -75 131 -34
79 -61 146 -61 150 0 6 21 14 45 17 6 0 34 -55 64 -124z m-309 -262 c51 -120
99 -232 106 -249 11 -27 10 -35 -7 -64 l-21 -33 -114 269 c-105 246 -113 270
-97 281 9 7 22 13 28 13 7 0 54 -98 105 -217z m-57 -74 c54 -128 96 -238 93
-245 -14 -37 -38 3 -130 222 -80 191 -96 238 -85 245 8 5 16 9 19 9 3 0 50
-104 103 -231z m863 203 c-2 -4 -57 -142 -121 -307 -64 -165 -120 -304 -125
-309 -10 -10 -452 3 -470 14 -8 5 39 95 150 291 89 156 162 285 164 286 4 4
292 30 349 32 32 0 56 -2 53 -7z m-437 -44 c-7 -13 -81 -145 -166 -295 -133
-234 -153 -275 -143 -293 24 -45 53 -53 273 -71 117 -10 226 -18 243 -18 l31
-1 113 303 c63 166 115 304 117 306 2 2 6 2 9 -2 4 -4 -210 -609 -222 -625 -1
-2 -113 5 -247 16 -169 14 -254 25 -275 36 -39 20 -74 65 -69 88 3 9 73 133
157 275 176 299 179 303 186 303 2 0 -1 -10 -7 -22z m451 -48 c0 -8 -51 -148
-112 -312 -88 -231 -117 -298 -130 -298 -17 0 -38 28 -38 49 0 6 8 11 18 11
13 0 42 66 131 296 74 190 117 290 122 282 5 -7 9 -20 9 -28z m-542 -52 c-8
-13 -43 -71 -78 -131 -35 -59 -67 -104 -71 -100 -5 5 -21 40 -37 78 l-30 70
107 52 c58 28 110 52 115 52 4 1 2 -9 -6 -21z m65 -494 c97 -3 177 -9 177 -13
0 -3 3 -15 6 -26 l5 -21 -206 16 c-189 15 -207 18 -228 39 l-22 22 45 -5 c25
-3 125 -8 223 -12z"/>
<path d="M2096 744 c-20 -20 -26 -37 -26 -68 0 -75 52 -117 117 -95 65 21 84
109 34 160 -39 38 -88 40 -125 3z"/>
</g>
</svg>
