<?xml version="1.0" standalone="no"?>
<!DOCTYPE svg PUBLIC "-//W3C//DTD SVG 20010904//EN"
 "http://www.w3.org/TR/2001/REC-SVG-20010904/DTD/svg10.dtd">
<svg version="1.0" xmlns="http://www.w3.org/2000/svg"
 width="468.000000pt" height="153.000000pt" viewBox="0 0 468.000000 153.000000"
 preserveAspectRatio="xMidYMid meet">
<metadata>
Created by potrace 1.15, written by Peter Selinger 2001-2017
</metadata>
<g transform="translate(0.000000,153.000000) scale(0.100000,-0.100000)"
fill="#000000" stroke="none">
<path d="M575 1510 c-215 -57 -392 -199 -489 -392 -67 -135 -81 -197 -80 -358
0 -125 3 -142 33 -230 72 -210 206 -362 404 -455 113 -54 185 -69 322 -69 140
0 225 18 331 69 l72 35 1664 0 1663 0 50 24 c60 28 87 56 114 116 20 43 21 64
21 505 0 274 -4 474 -10 496 -13 48 -75 118 -124 140 -39 18 -110 19 -1694 19
l-1654 0 -81 40 c-120 59 -216 80 -356 79 -80 0 -138 -6 -186 -19z m338 -76
c182 -40 345 -158 442 -320 116 -193 123 -438 19 -652 -77 -157 -215 -279
-386 -339 -96 -35 -280 -44 -378 -19 -193 48 -357 178 -450 357 -51 99 -73
190 -73 309 0 171 61 331 173 453 169 184 415 264 653 211z m2725 -656 l2
-238 -45 0 c-35 0 -45 4 -45 16 0 15 -3 14 -27 -2 -45 -29 -122 -25 -168 10
-76 58 -95 170 -44 253 44 71 138 95 207 53 l32 -20 0 86 0 85 43 -3 42 -3 3
-237z m-1150 185 l3 -43 -70 0 -71 0 0 -40 0 -40 70 0 70 0 0 -45 0 -45 -70 0
-70 0 0 -105 0 -105 -45 0 -45 0 0 235 0 236 113 -3 112 -3 3 -42z m289 -94
c108 -52 127 -214 35 -291 -137 -115 -339 9 -293 180 31 112 150 163 258 111z
m388 -2 c22 -12 50 -37 62 -56 107 -158 -90 -356 -247 -248 -54 36 -73 70 -78
136 -4 49 0 67 19 101 48 85 158 116 244 67z"/>
<path d="M572 1230 c-201 -53 -351 -199 -358 -350 -2 -30 -6 -64 -9 -75 -4
-14 4 -31 30 -59 l36 -39 -20 -21 c-16 -17 -21 -37 -22 -92 -3 -107 20 -136
127 -160 95 -21 456 -30 606 -15 156 16 224 33 257 65 32 30 35 56 20 155 -8
58 -8 83 2 113 7 21 16 38 20 38 14 0 21 41 10 54 -6 8 -18 40 -27 72 -40 158
-171 278 -346 319 -88 21 -236 18 -326 -5z"/>
<path d="M3396 779 c-61 -72 0 -185 88 -163 65 16 91 120 41 169 -37 38 -95
35 -129 -6z"/>
<path d="M2629 781 c-67 -68 -9 -182 85 -164 66 13 91 120 40 168 -38 35 -87
34 -125 -4z"/>
<path d="M3023 792 c-46 -36 -51 -112 -9 -150 70 -64 170 -4 152 92 -12 66
-92 98 -143 58z"/>
</g>
</svg>
