<?xml version="1.0" standalone="no"?>
<!DOCTYPE svg PUBLIC "-//W3C//DTD SVG 20010904//EN"
 "http://www.w3.org/TR/2001/REC-SVG-20010904/DTD/svg10.dtd">
<svg version="1.0" xmlns="http://www.w3.org/2000/svg"
 width="467.000000pt" height="153.000000pt" viewBox="0 0 467.000000 153.000000"
 preserveAspectRatio="xMidYMid meet">
<metadata>
Created by potrace 1.15, written by Peter Selinger 2001-2017
</metadata>
<g transform="translate(0.000000,153.000000) scale(0.100000,-0.100000)"
fill="#000000" stroke="none">
<path d="M585 1512 c-449 -114 -693 -578 -535 -1014 71 -193 229 -359 418
-437 109 -45 167 -56 302 -56 142 0 212 15 329 70 l73 35 1657 0 c1587 0 1658
1 1696 19 52 24 88 58 117 112 23 44 23 44 26 494 2 304 -1 464 -8 494 -17 68
-62 125 -122 155 l-52 26 -1648 0 -1648 0 -53 29 c-28 17 -88 42 -132 57 -107
36 -311 44 -420 16z m380 -92 c103 -32 188 -84 274 -165 88 -84 140 -167 178
-280 23 -70 27 -97 27 -210 0 -120 -2 -137 -30 -216 -78 -221 -260 -388 -484
-446 -86 -22 -244 -21 -330 2 -242 63 -431 255 -495 500 -21 78 -21 232 -1
317 59 253 267 457 521 512 95 21 247 15 340 -14z m1593 -430 c23 -17 42 -34
42 -38 0 -5 -14 -21 -31 -38 -21 -19 -33 -25 -36 -16 -9 23 -61 44 -83 32 -11
-6 -20 -16 -20 -23 0 -6 41 -50 90 -97 l90 -85 0 -53 c0 -45 -4 -57 -33 -88
-26 -29 -42 -37 -79 -41 -60 -7 -89 1 -127 33 -54 45 -56 59 -15 85 l36 22 24
-26 c13 -14 32 -28 43 -32 30 -9 61 12 61 41 0 25 -18 46 -98 112 -89 73 -103
153 -36 211 49 43 114 44 172 1z m192 -35 l0 -65 30 0 c28 0 30 -3 30 -34 0
-30 -3 -35 -27 -38 l-28 -3 -3 -132 -3 -133 -39 0 -39 0 -3 133 c-3 128 -4
132 -25 135 -19 3 -23 10 -23 38 0 30 3 34 25 34 24 0 25 2 25 65 l0 65 40 0
40 0 0 -65z m283 -74 c29 -15 37 -16 37 -5 0 10 13 14 45 14 l45 0 0 -170 0
-170 -45 0 c-33 0 -45 4 -45 15 0 11 -7 10 -35 -7 -70 -40 -171 -4 -209 75
-18 40 -21 122 -5 164 33 87 130 126 212 84z m265 -63 c17 -40 36 -88 44 -106
l13 -33 44 98 c24 54 48 102 51 106 4 5 26 7 48 5 l41 -3 -101 -220 c-55 -121
-105 -226 -110 -232 -9 -11 -88 -19 -88 -9 0 2 15 37 34 78 l34 74 -64 154
c-35 84 -64 155 -64 157 0 2 20 3 44 3 l44 0 30 -72z"/>
<path d="M520 1139 c-118 -88 -224 -165 -234 -172 -19 -13 -19 -14 5 -49 20
-29 28 -34 42 -27 16 9 17 -8 17 -261 l0 -270 395 0 395 0 0 270 c0 149 3 270
7 270 3 0 14 -7 24 -16 16 -14 19 -13 43 22 14 21 22 41 18 45 -14 12 -492
349 -495 348 -1 0 -99 -72 -217 -160z m399 -80 l171 -121 -2 -196 c-1 -108 -4
-155 -5 -104 l-4 92 -89 0 -90 0 0 -90 c0 -73 -3 -90 -15 -90 -12 0 -15 16
-15 85 l0 85 -120 0 -120 0 0 -85 c0 -69 -3 -85 -15 -85 -12 0 -15 17 -15 90
l0 90 -90 0 -90 0 0 -90 c0 -60 -4 -90 -11 -90 -8 0 -9 11 -5 31 3 17 6 107 6
198 l0 167 161 117 c89 64 166 117 170 117 4 0 85 -54 178 -121z m-289 -609
l0 -40 -115 0 -115 0 0 33 c0 19 3 37 7 40 3 4 55 7 115 7 l108 0 0 -40z m460
0 l0 -40 -110 0 -110 0 0 40 0 40 110 0 110 0 0 -40z"/>
<path d="M683 991 c-43 -20 -65 -51 -78 -108 l-7 -33 51 0 c28 0 60 -5 70 -12
15 -9 25 -9 46 0 14 7 44 12 65 12 38 0 40 2 40 30 0 49 -27 90 -73 111 -23
10 -49 19 -57 19 -8 0 -34 -9 -57 -19z"/>
<path d="M2942 810 c-35 -15 -57 -75 -43 -122 12 -38 50 -68 86 -68 36 0 74
30 86 68 26 87 -46 155 -129 122z"/>
</g>
</svg>
